# xmcd
#
# Track frame offsets: 
#        150
#        14199
#        33217
#        44133
#        65829
#        80035
#        95929
#        116643
#        134870
#        148410
#        174271
#        190719
#
# Disc length: 2810 seconds
#
# Revision: 0
# Processed by: cddbd v1.5.2PL0 Copyright (c) Steve Scherf et al.
# Submitted via: ExactAudioCopy v0.99pb3
#
DISCID=c30af80c
DTITLE=Nappy Brown - Long Time Coming
DYEAR=2007
DGENRE=Blues
TTITLE0=Keep On Pleasin' You
TTITLE1=You Were A Long Time Coming
TTITLE2=Don't Be Angry
TTITLE3=Give Me Your Love
TTITLE4=That Man
TTITLE5=Right Time
TTITLE6=Who
TTITLE7=Cherry Red
TTITLE8=Aw Shucks Baby
TTITLE9=Every Shut Eye Ain't Sleepin'
TTITLE10=Bye Bye Baby
TTITLE11=Take Care Of Me
EXTD=
EXTT0=
EXTT1=
EXTT2=
EXTT3=
EXTT4=
EXTT5=
EXTT6=
EXTT7=
EXTT8=
EXTT9=
EXTT10=
EXTT11=
PLAYORDER=
